<svg width="16" height="16" viewBox="0 0 16 16" fill="none" xmlns="http://www.w3.org/2000/svg">
  <path d="M9 1V3.5C9 4.32843 9.67157 5 10.5 5H13V13.5C13 14.3284 12.3284 15 11.5 15H4.5C3.6716 15 3.00005 14.3284 3 13.5V2.5C3 1.67157 3.67157 1 4.5 1H9Z" fill="url(#paint0_linear_4628_218)"/>
  <path d="M9 1L13 5V6H10.5C9.67157 6 9 5.32843 9 4.5V1Z" fill="#9E9E9E"/>
  <path d="M9 1L13 5H10.5C9.67157 5 9 4.32843 9 3.5V1Z" fill="#EEEEEE"/>
  <path d="M5 4.5C5 4.22386 5.22386 4 5.5 4H7.5C7.77614 4 8 4.22386 8 4.5C8 4.77614 7.77614 5 7.5 5H5.5C5.22386 5 5 4.77614 5 4.5Z" fill="#9E9E9E"/>
  <path d="M5 6.5C5 6.22386 5.22386 6 5.5 6H7.5C7.77614 6 8 6.22386 8 6.5C8 6.77614 7.77614 7 7.5 7H5.5C5.22386 7 5 6.77614 5 6.5Z" fill="#9E9E9E"/>
  <path d="M5 10.5C5 10.2239 5.22386 10 5.5 10H10.5C10.7761 10 11 10.2239 11 10.5C11 10.7761 10.7761 11 10.5 11H5.5C5.22386 11 5 10.7761 5 10.5Z" fill="#9E9E9E"/>
  <path d="M5 8.5C5 8.22386 5.22386 8 5.5 8H10.5C10.7761 8 11 8.22386 11 8.5C11 8.77614 10.7761 9 10.5 9H5.5C5.22386 9 5 8.77614 5 8.5Z" fill="#9E9E9E"/>
  <path d="M5 12.5C5 12.2239 5.22386 12 5.5 12H10.5C10.7761 12 11 12.2239 11 12.5C11 12.7761 10.7761 13 10.5 13H5.5C5.22386 13 5 12.7761 5 12.5Z" fill="#9E9E9E"/>
  <path d="M9.47004 10.3994C8.32748 10.3994 7.71403 10.5955 7.75163 11.0643C7.83249 12.0725 8.34403 12.5788 9.46991 12.5986C11.1238 12.6277 11.2075 11.8229 11.249 11.0642C11.2789 10.5187 10.6126 10.3994 9.47004 10.3994Z" fill="#99B5BB"/>
  <path d="M4.52996 10.4004C5.67252 10.4004 6.28597 10.5964 6.24837 11.0652C6.16751 12.0735 5.65597 12.5798 4.53009 12.5996C2.87618 12.6287 2.79245 11.8239 2.75096 11.0652C2.72113 10.5197 3.38741 10.4004 4.52996 10.4004Z" fill="#99B5BB"/>
  <path d="M10.5 12C10.6623 12 10.8051 12.0784 10.8965 12.1982C10.6506 12.449 10.2251 12.6119 9.46973 12.5986C8.77383 12.5864 8.31367 12.3876 8.04395 12H10.5Z" fill="#8FAAAE"/>
  <path d="M5.95703 12C5.7542 12.2921 5.44315 12.4749 5.00488 12.5537C5.00298 12.536 5 12.5182 5 12.5C5 12.2239 5.22386 12 5.5 12H5.95703Z" fill="#8FAAAE"/>
  <path d="M6.23828 11.1455C6.22258 11.2933 6.19821 11.4296 6.16211 11.5547C5.64487 11.621 5.14455 11.6847 4.69043 11.7471C4.62678 11.7558 4.45378 11.8475 4.31738 11.9219C3.97534 12.1083 3.77256 12.2683 3.52734 12.4648C3.34349 12.3967 3.2058 12.3053 3.10059 12.1973C3.72947 11.846 4.55008 11.4675 4.63574 11.4443C4.73793 11.4167 4.79523 11.3997 4.89941 11.3809C5.31047 11.3065 5.7652 11.2276 6.23828 11.1455Z" fill="#997CBA"/>
  <path d="M7.17676 10.9824C7.27386 11.064 7.3378 11.2145 7.40918 11.3965C7.1215 11.4321 6.8322 11.4686 6.5459 11.5049C6.61752 11.3237 6.67595 11.1628 6.75391 11.0547C6.89424 11.0306 7.03541 11.0065 7.17676 10.9824Z" fill="#997CBA"/>
  <path d="M10.3877 10.4453C10.8902 10.5082 11.1896 10.6482 11.2402 10.9385C10.5995 11.0126 9.24263 11.1712 7.78906 11.3496C7.77236 11.2594 7.75901 11.1645 7.75098 11.0645C7.74562 10.9977 7.75469 10.9368 7.77539 10.8809C8.74346 10.7171 9.6804 10.5618 10.3877 10.4453Z" fill="#997CBA"/>
  <path d="M9.10156 11.3809C9.20575 11.3997 9.26304 11.4167 9.36523 11.4443C9.45081 11.4675 10.2698 11.8454 10.8984 12.1963C10.7931 12.3043 10.6557 12.3958 10.4717 12.4639C10.2272 12.2679 10.0249 12.1078 9.68359 11.9219C9.54719 11.8475 9.3742 11.7558 9.31055 11.7471C8.85586 11.6846 8.35484 11.6211 7.83691 11.5547C7.8008 11.4297 7.77648 11.2932 7.76074 11.1455C8.23451 11.2277 8.68996 11.3064 9.10156 11.3809Z" fill="#997CBA"/>
  <path d="M6.82227 10.9814C6.96335 11.0055 7.10406 11.0306 7.24414 11.0547C7.32268 11.1625 7.38222 11.3231 7.4541 11.5049C7.16747 11.4686 6.87784 11.4321 6.58984 11.3965C6.66115 11.2145 6.7255 11.0635 6.82227 10.9814Z" fill="#997CBA"/>
  <path d="M3.61523 10.4463C4.32137 10.5626 5.2559 10.7175 6.22168 10.8809C6.24279 10.9372 6.25345 10.9981 6.24805 11.0654C6.24004 11.1652 6.22561 11.2597 6.20898 11.3496C4.75578 11.1712 3.39968 11.0125 2.75977 10.9385C2.81102 10.6483 3.11164 10.5089 3.61523 10.4463Z" fill="#997CBA"/>
  <path d="M2.8606 12.3369C2.99843 12.4525 3.161 12.5429 3.33912 12.6133C3.21936 12.7076 3.0843 12.8129 2.91724 12.9316C2.75446 13.0474 2.50724 13.1335 2.40845 12.959C2.32986 12.8201 2.39228 12.6632 2.51685 12.5645C2.60269 12.4965 2.72276 12.4199 2.8606 12.3369Z" fill="#8E1EBD"/>
  <path d="M7.17603 10.9824C7.27333 11.064 7.33798 11.2142 7.40943 11.3965C7.12143 11.4321 6.8318 11.4686 6.54517 11.5049C6.6169 11.3236 6.67608 11.1628 6.75416 11.0547C6.89418 11.0306 7.035 11.0065 7.17603 10.9824Z" fill="#8E1EBD"/>
  <path d="M11.1387 12.3369C11.2766 12.4199 11.3965 12.4964 11.4824 12.5645C11.6071 12.6632 11.6702 12.8201 11.5918 12.959C11.4931 13.1334 11.2458 13.0473 11.083 12.9316C10.9158 12.8127 10.779 12.7087 10.6592 12.6143C10.8378 12.5438 11.0005 12.4527 11.1387 12.3369Z" fill="#8E1EBD"/>
  <path d="M6.82129 10.9824C6.96327 11.0066 7.10513 11.0305 7.24609 11.0547C7.32403 11.1627 7.38152 11.3239 7.45312 11.5049C7.16681 11.4686 6.87752 11.4321 6.58984 11.3965C6.66097 11.215 6.72489 11.0645 6.82129 10.9824Z" fill="#8E1EBD"/>
  <path fill-rule="evenodd" clip-rule="evenodd" d="M7 10.3365C7.25 10.338 8.85911 10.0054 9.5 9.99985C10.2466 9.99337 10.9283 10.0796 11.6631 10.2047C11.8411 10.2351 12 10.3372 12 10.6344C11.9997 11.0755 11.7636 11.0515 11.6357 11.399C11.5081 11.7468 11.5877 12.0407 11.2627 12.402C10.5433 13.201 8.84648 13.1136 8.13867 12.6373C7.38783 12.1317 7.45992 11.1804 7.08203 11.0631L7 11.0514C6.52666 11.0517 6.66232 12.0979 5.86133 12.6373C5.15346 13.1135 3.45671 13.201 2.7373 12.402C2.41212 12.0406 2.49196 11.7468 2.36426 11.399C2.23641 11.0512 2.00013 11.075 2 10.6334C2.00012 10.3364 2.15899 10.2351 2.33691 10.2047C3.08166 10.078 3.77184 9.99147 4.53027 10.0005C5.25537 10.0091 6.75 10.3361 7 10.3365ZM4.53027 10.4C3.38772 10.4 2.72114 10.5195 2.75098 11.0651C2.79247 11.8237 2.87654 12.6283 4.53027 12.5992C5.65594 12.5794 6.16714 12.0731 6.24805 11.0651C6.28564 10.5963 5.67263 10.4001 4.53027 10.4ZM9.46973 10.399C8.32738 10.3991 7.71437 10.5953 7.75195 11.0641C7.83281 12.0723 8.34398 12.5784 9.46973 12.5983C11.1236 12.6274 11.2075 11.8228 11.249 11.0641C11.2789 10.5186 10.6123 10.399 9.46973 10.399Z" fill="#8E1EBD"/>
  <defs>
    <linearGradient id="paint0_linear_4628_218" x1="13" y1="1" x2="2.65507" y2="14.7403" gradientUnits="userSpaceOnUse">
      <stop stop-color="#BEBEBE"/>
      <stop offset="1" stop-color="#9E9E9E"/>
    </linearGradient>
  </defs>
</svg>
