<svg width="16" height="16" viewBox="0 0 16 16" fill="none" xmlns="http://www.w3.org/2000/svg">
  <path d="M9 1V3.5C9 4.32843 9.67157 5 10.5 5H13V13.5C13 14.3284 12.3284 15 11.5 15H4.5C3.6716 15 3.00005 14.3284 3 13.5V2.5C3 1.67157 3.67157 1 4.5 1H9Z" fill="url(#paint0_linear_4618_230)"/>
  <path d="M9 1L13 5V6H10.5C9.67157 6 9 5.32843 9 4.5V1Z" fill="#9E9E9E"/>
  <path d="M9 1L13 5H10.5C9.67157 5 9 4.32843 9 3.5V1Z" fill="#EEEEEE"/>
  <path d="M9.95221 10.334L11.1013 11.483L10.4825 12.1018L9.3335 10.9527L9.95221 10.334Z" fill="#808080"/>
  <path d="M11 8.5C11 10.433 9.433 12 7.5 12C5.567 12 4 10.433 4 8.5C4 6.567 5.567 5 7.5 5C9.433 5 11 6.567 11 8.5Z" fill="url(#paint1_linear_4618_230)"/>
  <path d="M6.10308 10.7151C7.71725 10.7151 9.0258 9.49039 9.0258 7.97967C9.0258 7.20091 8.67808 6.49817 8.12003 6C9.212 6.33758 10 7.30044 10 8.43556C10 9.85186 9.5 11 7.25995 11C6.80567 11 6.37721 10.8965 6 10.7134C6.03421 10.7145 6.06858 10.7151 6.10308 10.7151Z" fill="#05919F"/>
  <path fill-rule="evenodd" clip-rule="evenodd" d="M7.5 12C9.433 12 11 10.433 11 8.5C11 6.567 9.433 5 7.5 5C5.567 5 4 6.567 4 8.5C4 10.433 5.567 12 7.5 12ZM7.5 11C8.88071 11 10 9.88071 10 8.5C10 7.11929 8.88071 6 7.5 6C6.11929 6 5 7.11929 5 8.5C5 9.88071 6.11929 11 7.5 11Z" fill="white"/>
  <path d="M11.1249 11.2504C11.1787 11.1951 11.2656 11.1952 11.3192 11.2507L13.4885 13.5021C13.7829 13.8076 13.782 14.3021 13.4864 14.6064C13.1909 14.9107 12.7126 14.9097 12.4182 14.6042L10.2488 12.3528C10.1953 12.2973 10.1954 12.2074 10.2491 12.1521L11.1249 11.2504Z" fill="#FFAD00"/>
  <defs>
    <linearGradient id="paint0_linear_4618_230" x1="13" y1="1" x2="2.65507" y2="14.7403" gradientUnits="userSpaceOnUse">
      <stop stop-color="#BEBEBE"/>
      <stop offset="1" stop-color="#9E9E9E"/>
    </linearGradient>
    <linearGradient id="paint1_linear_4618_230" x1="11" y1="5" x2="4" y2="12" gradientUnits="userSpaceOnUse">
      <stop stop-color="#48B9C7"/>
      <stop offset="1" stop-color="#05919F"/>
    </linearGradient>
  </defs>
</svg>
