<svg width="256" height="256" viewBox="0 0 256 256" fill="none" xmlns="http://www.w3.org/2000/svg">
  <path d="M160 8V48C160 56.8366 167.163 64 176 64H216V232C216 240.837 208.837 248 200 248H56C47.1634 248 40 240.837 40 232V24C40 15.1634 47.1634 8 56 8H160Z" fill="url(#paint0_linear_4628_235)"/>
  <path d="M160 8L216 64V72H176C167.163 72 160 64.8366 160 56V8Z" fill="#9E9E9E"/>
  <path d="M160 8L216 64H176C167.163 64 160 56.8366 160 48V8Z" fill="#EEEEEE"/>
  <path d="M72 50C72 46.6863 74.6863 44 78 44H130C133.314 44 136 46.6863 136 50C136 53.3137 133.314 56 130 56H78C74.6863 56 72 53.3137 72 50Z" fill="#9E9E9E"/>
  <path d="M72 78C72 74.6863 74.6863 72 78 72H130C133.314 72 136 74.6863 136 78C136 81.3137 133.314 84 130 84H78C74.6863 84 72 81.3137 72 78Z" fill="#9E9E9E"/>
  <path d="M72 106C72 102.686 74.6863 100 78 100H178C181.314 100 184 102.686 184 106C184 109.314 181.314 112 178 112H78C74.6863 112 72 109.314 72 106Z" fill="#9E9E9E"/>
  <path d="M113 134C113 130.686 115.686 128 119 128H178C181.314 128 184 130.686 184 134C184 137.314 181.314 140 178 140H119C115.686 140 113 137.314 113 134Z" fill="#9E9E9E"/>
  <path d="M72 134C72 130.686 74.6863 128 78 128H98C101.314 128 104 130.686 104 134C104 137.314 101.314 140 98 140H78C74.6863 140 72 137.314 72 134Z" fill="#9E9E9E"/>
  <path d="M72 162C72 158.686 74.6863 156 78 156H178C181.314 156 184 158.686 184 162C184 165.314 181.314 168 178 168H78C74.6863 168 72 165.314 72 162Z" fill="#9E9E9E"/>
  <path d="M72 162C72 158.686 74.6863 156 78 156H178C181.314 156 184 158.686 184 162C184 165.314 181.314 168 178 168H78C74.6863 168 72 165.314 72 162Z" fill="#9E9E9E"/>
  <path d="M72 190C72 186.686 74.6863 184 78 184H138C141.314 184 144 186.686 144 190C144 193.314 141.314 196 138 196H78C74.6863 196 72 193.314 72 190Z" fill="#9E9E9E"/>
  <path d="M152 190C152 186.686 154.686 184 158 184H178C181.314 184 184 186.686 184 190C184 193.314 181.314 196 178 196H158C154.686 196 152 193.314 152 190Z" fill="#9E9E9E"/>
  <path d="M38.9144 217.449C41.3191 219.474 44.1615 221.08 47.2747 222.312C45.2016 223.944 42.8486 225.744 39.9622 227.797C37.1299 229.811 32.8228 231.313 31.1038 228.276C29.7355 225.859 30.8323 223.127 33.0023 221.408C34.4862 220.233 36.5357 218.882 38.9144 217.449Z" fill="#8E1EBD"/>
  <path d="M114.132 193.867C115.807 195.292 116.906 197.925 118.141 201.075C113.135 201.695 108.101 202.325 103.118 202.956C104.361 199.813 105.361 197.013 106.715 195.138C109.177 194.715 111.653 194.29 114.132 193.867Z" fill="#8E1EBD"/>
  <path d="M183.088 217.451C185.466 218.883 187.515 220.233 188.998 221.408C191.168 223.127 192.265 225.859 190.897 228.276C189.178 231.313 184.871 229.811 182.038 227.797C179.153 225.745 176.801 223.946 174.729 222.313C177.842 221.082 180.684 219.476 183.088 217.451Z" fill="#8E1EBD"/>
  <path d="M107.863 193.867C110.342 194.29 112.818 194.714 115.28 195.137C116.635 197.011 117.636 199.811 118.879 202.956C113.897 202.325 108.862 201.695 103.857 201.075C105.091 197.926 106.19 195.294 107.863 193.867Z" fill="#8E1EBD"/>
  <path d="M67.5652 180.324C89.1106 180.324 100.678 183.978 99.9695 192.715C98.4447 211.505 88.7985 220.941 67.5677 221.31C36.3796 221.852 34.8008 206.853 34.0184 192.714C33.4558 182.547 46.0199 180.324 67.5652 180.324Z" fill="#99B4B8"/>
  <path d="M154.435 180.324C132.89 180.324 121.322 183.978 122.031 192.715C123.556 211.505 133.202 220.941 154.433 221.31C185.621 221.852 187.2 206.853 187.982 192.714C188.545 182.547 175.981 180.324 154.435 180.324Z" fill="#99B4B8"/>
  <path d="M72 190C72 186.686 74.6863 184 78 184H138C141.314 184 144 186.686 144 190C144 193.314 141.314 196 138 196H78C74.6863 196 72 193.314 72 190Z" fill="#8FAAAE"/>
  <path d="M152 190C152 186.686 154.686 184 158 184H178C181.314 184 184 186.686 184 190C184 193.314 181.314 196 178 196H158C154.686 196 152 193.314 152 190Z" fill="#8FAAAE"/>
  <rect x="106" y="192" width="10" height="3" fill="#9E9E9E"/>
  <path d="M99.5496 196.374C99.155 199.003 98.5736 201.422 97.7917 203.633C88.3009 204.846 79.1126 206.052 70.8074 207.193C69.6999 207.346 66.6954 208.935 64.322 210.229C58.4608 213.422 54.9528 216.175 50.7722 219.524C47.2727 218.516 44.5286 217.123 42.3689 215.438C53.3993 209.207 68.3322 202.336 69.8582 201.923C71.6382 201.441 72.6313 201.133 74.4451 200.805C82.1206 199.416 90.6675 197.912 99.5496 196.374Z" fill="#997CBA"/>
  <path d="M114.132 193.867C115.806 195.292 116.905 197.925 118.14 201.075C113.135 201.695 108.101 202.325 103.119 202.956C104.361 199.813 105.361 197.013 106.716 195.138C109.177 194.715 111.652 194.29 114.132 193.867Z" fill="#997CBA"/>
  <path d="M180.01 182.874C185.439 184.72 188.254 187.783 187.981 192.714C187.981 192.725 187.98 192.735 187.979 192.746C178.62 193.824 151.875 196.925 123.254 200.445C122.661 198.073 122.256 195.496 122.03 192.715C122.025 192.651 122.022 192.588 122.018 192.525C144.894 188.648 167.085 184.99 180.01 182.874Z" fill="#997CBA"/>
  <path d="M122.45 196.374C131.332 197.912 139.879 199.416 147.554 200.805C149.368 201.133 150.362 201.441 152.142 201.923C153.669 202.336 168.602 209.208 179.632 215.438C177.472 217.124 174.727 218.516 171.227 219.524C167.047 216.175 163.539 213.422 157.678 210.229C155.305 208.935 152.3 207.346 151.193 207.193C142.888 206.052 133.699 204.846 124.209 203.633C123.427 201.422 122.844 199.003 122.45 196.374Z" fill="#997CBA"/>
  <path d="M107.864 193.867C110.343 194.29 112.819 194.714 115.28 195.137C116.636 197.011 117.637 199.811 118.88 202.956C113.898 202.325 108.864 201.695 103.858 201.075C105.092 197.926 106.192 195.294 107.864 193.867Z" fill="#997CBA"/>
  <path d="M41.9908 182.875C54.9155 184.991 77.1059 188.648 99.981 192.525C99.9771 192.588 99.9754 192.651 99.9703 192.715C99.7445 195.497 99.3386 198.073 98.7457 200.445C70.1239 196.925 43.379 193.824 34.0201 192.746C34.0195 192.735 34.0197 192.725 34.0191 192.714C33.7463 187.783 36.5615 184.721 41.9908 182.875Z" fill="#997CBA"/>
  <path fill-rule="evenodd" clip-rule="evenodd" d="M29.8701 178.453C51.8396 174.832 71.0761 173.16 98 177.974C102.14 178.715 105.817 180.671 111.003 180.672C116.194 180.673 119.875 178.715 124.019 177.974C150.933 173.164 170.166 174.837 192.13 178.457C195.23 178.968 198 180.676 198 185.689C198 193.136 193.88 192.719 191.655 198.582C189.43 204.445 190.825 209.389 185.163 215.481C172.644 228.95 143.123 227.471 130.811 219.442C116.872 210.351 119.237 192.72 110.997 192.72V192.715C102.764 192.724 105.125 210.35 91.1895 219.438C78.8766 227.467 49.3558 228.946 36.8369 215.477C31.1752 209.385 32.5698 204.441 30.3447 198.578C28.1196 192.715 24 193.132 24 185.685C24.0001 180.672 26.7697 178.964 29.8701 178.453ZM67.5654 180.324C46.0201 180.324 33.456 182.547 34.0186 192.714C34.801 206.853 36.3795 221.852 67.5674 221.31C88.7982 220.941 98.4449 211.505 99.9697 192.715C100.679 183.978 89.1105 180.324 67.5654 180.324ZM154.435 180.324C132.89 180.324 121.321 183.978 122.03 192.715C123.555 211.505 133.202 220.941 154.433 221.31C185.62 221.852 187.199 206.853 187.981 192.714C188.544 182.547 175.98 180.324 154.435 180.324Z" fill="#8E1EBD"/>
  <defs>
    <linearGradient id="paint0_linear_4628_235" x1="216" y1="8.00001" x2="40" y2="248" gradientUnits="userSpaceOnUse">
      <stop stop-color="#BEBEBE"/>
      <stop offset="1" stop-color="#9E9E9E"/>
    </linearGradient>
  </defs>
</svg>
