<svg width="256" height="256" viewBox="0 0 256 256" fill="none" xmlns="http://www.w3.org/2000/svg">
  <path d="M160 8V48C160 56.8366 167.163 64 176 64H216V232C216 240.837 208.837 248 200 248H56C47.1634 248 40 240.837 40 232V24C40 15.1634 47.1634 8 56 8H160Z" fill="url(#paint0_linear_4618_239)"/>
  <path d="M160 8L216 64V72H176C167.163 72 160 64.8366 160 56V8Z" fill="#9E9E9E"/>
  <path d="M160 8L216 64H176C167.163 64 160 56.8366 160 48V8Z" fill="#EEEEEE"/>
  <path d="M167.899 160L186.284 178.385L176.385 188.284L158 169.899L167.899 160Z" fill="#808080"/>
  <path d="M184 128C184 158.928 158.928 184 128 184C97.072 184 72 158.928 72 128C72 97.072 97.072 72 128 72C158.928 72 184 97.072 184 128Z" fill="white"/>
  <path d="M173 128C173 152.853 152.853 173 128 173C103.147 173 83 152.853 83 128C83 103.147 103.147 83 128 83C152.853 83 173 103.147 173 128Z" fill="url(#paint1_linear_4618_239)"/>
  <path d="M109.001 168.001C135.51 168.001 157.001 146.511 157.001 120.001C157.001 106.335 151.29 94.0039 142.125 85.2622C160.058 91.186 173 108.082 173 128.001C173 152.854 152.853 173.001 128 173.001C120.539 173.001 113.502 171.185 107.308 167.972C107.87 167.991 108.434 168.001 109.001 168.001Z" fill="#05919F"/>
  <path d="M107 162.5C111.305 164.892 96.0003 146 96.0003 129C96.0003 109 107.5 95.0011 104.5 95.5002C101.624 95.9788 87.5002 109.5 86.9998 129C86.5891 145.003 98.0003 157.5 107 162.5Z" fill="#88F1FF"/>
  <path d="M186.921 174.662C187.796 173.777 189.212 173.779 190.084 174.668L225.414 210.69C230.209 215.578 230.194 223.489 225.38 228.359C220.566 233.227 212.777 233.212 207.982 228.323L172.652 192.302C171.781 191.413 171.783 189.975 172.658 189.089L186.921 174.662Z" fill="#FFAD00"/>
  <defs>
    <linearGradient id="paint0_linear_4618_239" x1="216" y1="8.00001" x2="40" y2="248" gradientUnits="userSpaceOnUse">
      <stop stop-color="#BEBEBE"/>
      <stop offset="1" stop-color="#9E9E9E"/>
    </linearGradient>
    <linearGradient id="paint1_linear_4618_239" x1="173" y1="83" x2="83" y2="173" gradientUnits="userSpaceOnUse">
      <stop stop-color="#48B9C7"/>
      <stop offset="1" stop-color="#05919F"/>
    </linearGradient>
  </defs>
</svg>
