<svg width="32" height="32" viewBox="0 0 32 32" fill="none" xmlns="http://www.w3.org/2000/svg">
  <path d="M19 2V6C19 7.65685 20 9 22 9H26V27C25.9999 28.6568 24.5062 30 23 30H9C7.49382 30 6.00009 28.6568 6 27V5C6 3.34315 7.49377 2 9 2H19Z" fill="url(#paint0_linear_4618_209)"/>
  <path d="M19 2L26 9V10H21.625C20.1753 10 19 8.80609 19 7.33333V2Z" fill="#9E9E9E"/>
  <path d="M19 2L26 9H21.625C20.1753 9 19 7.82475 19 6.375V2Z" fill="#EEEEEE"/>
  <path d="M19.9872 21L22.2853 23.2981L21.0479 24.5355L18.7498 22.2374L19.9872 21Z" fill="#808080"/>
  <path d="M22 17C22 20.3137 19.3137 23 16 23C12.6863 23 10 20.3137 10 17C10 13.6863 12.6863 11 16 11C19.3137 11 22 13.6863 22 17Z" fill="url(#paint1_linear_4618_209)"/>
  <path d="M13.2319 22.3162C16.8638 22.3162 19.808 19.3769 19.808 15.7512C19.808 13.8822 19.0257 12.1956 17.7701 11C20.227 11.8102 22 14.1211 22 16.8453C22 20.2445 19.2398 23 15.8349 23C14.8128 23 13.8487 22.7517 13 22.3122C13.077 22.3148 13.1543 22.3162 13.2319 22.3162Z" fill="#05919F"/>
  <path fill-rule="evenodd" clip-rule="evenodd" d="M16 24C19.866 24 23 20.866 23 17C23 13.134 19.866 10 16 10C12.134 10 9 13.134 9 17C9 20.866 12.134 24 16 24ZM16 23C19.3137 23 22 20.3137 22 17C22 13.6863 19.3137 11 16 11C12.6863 11 10 13.6863 10 17C10 20.3137 12.6863 23 16 23Z" fill="white"/>
  <path d="M12.6823 20.9639C13.1617 21.2739 12 19.5457 12 17.3427C12 14.751 13.2839 12.937 12.9498 13.0017C12.6295 13.0637 11.0567 14.8158 11.0008 17.3427C10.9674 18.8517 11.9829 20.5117 12.6823 20.9639Z" fill="#88F1FF"/>
  <path d="M22.3324 22.8328C22.4399 22.7222 22.6138 22.7224 22.7209 22.8335L27.0596 27.3362C27.6484 27.9473 27.6466 28.9362 27.0554 29.5448C26.4642 30.1534 25.5077 30.1515 24.9189 29.5404L20.5801 25.0377C20.4731 24.9266 20.4733 24.7469 20.5808 24.6362L22.3324 22.8328Z" fill="#FFAD00"/>
  <defs>
    <linearGradient id="paint0_linear_4618_209" x1="26" y1="2" x2="5.31015" y2="29.4806" gradientUnits="userSpaceOnUse">
      <stop stop-color="#BEBEBE"/>
      <stop offset="1" stop-color="#9E9E9E"/>
    </linearGradient>
    <linearGradient id="paint1_linear_4618_209" x1="22" y1="11" x2="10" y2="23" gradientUnits="userSpaceOnUse">
      <stop stop-color="#48B9C7"/>
      <stop offset="1" stop-color="#05919F"/>
    </linearGradient>
  </defs>
</svg>
