<svg width="32" height="32" viewBox="0 0 32 32" fill="none" xmlns="http://www.w3.org/2000/svg">
  <path d="M19 2V6C19 7.65685 20 9 22 9H26V27C25.9999 28.6568 24.5062 30 23 30H9C7.49382 30 6.00009 28.6568 6 27V5C6 3.34315 7.49377 2 9 2H19Z" fill="url(#paint0_linear_4628_184)"/>
  <path d="M19 2L26 9V10H21.625C20.1753 10 19 8.80609 19 7.33333V2Z" fill="#9E9E9E"/>
  <path d="M19 2L26 9H21.625C20.1753 9 19 7.82475 19 6.375V2Z" fill="#EEEEEE"/>
  <rect x="10" y="7" width="6" height="1" rx="0.5" fill="#9E9E9E"/>
  <path d="M10 10.5C10 10.2239 10.2239 10 10.5 10H15.5C15.7761 10 16 10.2239 16 10.5C16 10.7761 15.7761 11 15.5 11H10.5C10.2239 11 10 10.7761 10 10.5Z" fill="#9E9E9E"/>
  <path d="M10 13.5C10 13.2239 10.2239 13 10.5 13H21.5C21.7761 13 22 13.2239 22 13.5C22 13.7761 21.7761 14 21.5 14H10.5C10.2239 14 10 13.7761 10 13.5Z" fill="#9E9E9E"/>
  <path d="M10 19.5C10 19.2239 10.2239 19 10.5 19H21.5C21.7761 19 22 19.2239 22 19.5C22 19.7761 21.7761 20 21.5 20H10.5C10.2239 20 10 19.7761 10 19.5Z" fill="#9E9E9E"/>
  <path d="M15 16.5C15 16.2239 15.2239 16 15.5 16H21.5C21.7761 16 22 16.2239 22 16.5C22 16.7761 21.7761 17 21.5 17H15.5C15.2239 17 15 16.7761 15 16.5Z" fill="#9E9E9E"/>
  <path d="M10 16.5C10 16.2239 10.2239 16 10.5 16H13.5C13.7761 16 14 16.2239 14 16.5C14 16.7761 13.7761 17 13.5 17H10.5C10.2239 17 10 16.7761 10 16.5Z" fill="#9E9E9E"/>
  <path d="M9.06848 21.5068C11.68 21.5068 13.0822 21.9524 12.9963 23.0179C12.8114 25.3093 11.6422 26.4601 9.06878 26.5051C5.28841 26.5712 5.09704 24.7421 5.0022 23.0177C4.93401 21.7779 6.45693 21.5068 9.06848 21.5068Z" fill="#99B4B8"/>
  <path d="M18.9315 21.5068C16.32 21.5068 14.9178 21.9524 15.0037 23.0179C15.1886 25.3093 16.3578 26.4601 18.9312 26.5051C22.7116 26.5712 22.903 24.7421 22.9978 23.0177C23.066 21.7779 21.5431 21.5068 18.9315 21.5068Z" fill="#99B4B8"/>
  <path d="M10 22.5C10 22.2239 10.2239 22 10.5 22H16.5C16.7761 22 17 22.2239 17 22.5C17 22.7761 16.7761 23 16.5 23H10.5C10.2239 23 10 22.7761 10 22.5Z" fill="#8FAAAE"/>
  <path d="M18 22.5C18 22.2239 18.2239 22 18.5 22H21.5C21.7761 22 22 22.2239 22 22.5C22 22.7761 21.7761 23 21.5 23H18.5C18.2239 23 18 22.7761 18 22.5Z" fill="#8FAAAE"/>
  <path d="M12.5898 23.4727C12.5478 23.7722 12.485 24.0484 12.4014 24.3018C11.339 24.4377 10.311 24.5723 9.37988 24.7002C9.25234 24.7179 8.90735 24.9003 8.63477 25.0488C7.92162 25.4374 7.51071 25.768 6.99121 26.1846C6.59288 26.0608 6.28285 25.8922 6.04102 25.6875C7.31478 24.9611 9.09284 24.1421 9.27148 24.0938C9.47564 24.0385 9.58983 24.0035 9.79785 23.9658C10.653 23.8111 11.6027 23.6438 12.5898 23.4727Z" fill="#997CBA"/>
  <path d="M14.3604 23.168C14.5528 23.332 14.6773 23.6357 14.8193 23.998C14.2441 24.0693 13.6653 24.1404 13.0928 24.2129C13.2361 23.8506 13.3535 23.5292 13.5098 23.3135C13.7921 23.265 14.076 23.2165 14.3604 23.168Z" fill="#997CBA"/>
  <path d="M21.8867 21.9141C22.5318 22.1209 22.8741 22.4687 22.8613 23.0371C21.8067 23.1585 18.7646 23.514 15.4932 23.916C15.4341 23.6581 15.3909 23.3805 15.3672 23.082C15.365 23.054 15.3634 23.0262 15.3633 22.999C17.9316 22.564 20.4133 22.1554 21.8867 21.9141Z" fill="#997CBA"/>
  <path d="M15.4103 23.4727C16.3975 23.6438 17.3471 23.8111 18.2023 23.9658C18.4106 24.0035 18.5251 24.0384 18.7296 24.0938C18.9095 24.1427 20.6859 24.9605 21.9591 25.6865C21.717 25.8915 21.407 26.0607 21.0079 26.1846C20.4888 25.7683 20.0782 25.4373 19.3654 25.0488C19.0926 24.9002 18.7476 24.7177 18.6202 24.7002C17.6891 24.5723 16.6612 24.4378 15.5988 24.3018C15.5152 24.0484 15.4523 23.7722 15.4103 23.4727Z" fill="#997CBA"/>
  <path d="M13.6378 23.168C13.9222 23.2165 14.2061 23.265 14.4884 23.3135C14.6452 23.529 14.7638 23.85 14.9073 24.2129C14.3342 24.1403 13.7547 24.0693 13.1788 23.998C13.3207 23.6361 13.446 23.3326 13.6378 23.168Z" fill="#997CBA"/>
  <path d="M6.11243 21.9141C7.58546 22.1553 10.0672 22.5639 12.6359 22.999C12.6358 23.0262 12.6352 23.054 12.6329 23.082C12.6093 23.3805 12.566 23.658 12.507 23.916C9.23452 23.5139 6.19141 23.1594 5.13782 23.0381C5.12461 22.4694 5.46774 22.1211 6.11243 21.9141Z" fill="#997CBA"/>
  <path d="M5.71708 25.877C5.99315 26.1091 6.31788 26.2952 6.67508 26.4365C6.43674 26.6243 6.16711 26.8324 5.83524 27.0684C5.50968 27.2999 5.01426 27.4721 4.81669 27.123C4.65952 26.8453 4.7853 26.5315 5.03446 26.334C5.20558 26.1985 5.4425 26.0423 5.71708 25.877Z" fill="#8E1EBD"/>
  <path d="M14.3606 23.1689C14.5528 23.3331 14.6777 23.636 14.8196 23.998C14.2443 24.0693 13.6656 24.1404 13.0931 24.2129C13.2364 23.8505 13.3538 23.5292 13.51 23.3135C13.7923 23.265 14.0763 23.2175 14.3606 23.1689Z" fill="#8E1EBD"/>
  <path d="M22.2822 25.8779C22.5568 26.0432 22.7937 26.1985 22.9648 26.334C23.2142 26.5315 23.3407 26.8452 23.1836 27.123C22.986 27.4721 22.4906 27.2998 22.165 27.0684C21.8326 26.832 21.5619 26.6245 21.3232 26.4365C21.6807 26.2952 22.006 26.1101 22.2822 25.8779Z" fill="#8E1EBD"/>
  <path d="M13.6387 23.1689C13.9233 23.2175 14.2076 23.2659 14.4902 23.3145C14.6461 23.53 14.7623 23.8512 14.9053 24.2129C14.3327 24.1404 13.754 24.0693 13.1787 23.998C13.3207 23.636 13.4467 23.3334 13.6387 23.1689Z" fill="#8E1EBD"/>
  <path fill-rule="evenodd" clip-rule="evenodd" d="M4.6748 21.3965C6.30665 21.1275 7.8073 20.9524 9.5 21.0115C10.8294 21.0579 13.6614 21.6481 14 21.6524C14.3386 21.6566 17.3683 21.0505 18.5124 21.0115C20.2 20.9539 21.6973 21.1292 23.3252 21.3975C23.6816 21.4562 24 21.6524 24 22.2285C24 23.0845 23.5263 23.037 23.2705 23.7109C23.015 24.3847 23.1751 24.9533 22.5244 25.6533C21.0854 27.2011 17.6927 27.0311 16.2773 26.1084C14.6754 25.0637 14.9467 23.0377 14 23.0371C13.0533 23.0377 13.3246 25.0627 11.7227 26.1074C10.3073 27.0303 6.91452 27.2005 5.47559 25.6524C4.82482 24.9522 4.98524 24.3839 4.72949 23.71C4.47377 23.0362 4.00016 23.0841 4 22.2285C4 21.6523 4.31843 21.4552 4.6748 21.3965ZM8.9502 21.6397C6.50205 21.6397 5.07475 21.8986 5.13867 23.082C5.22759 24.7279 5.40722 26.4742 8.95117 26.4111C11.3635 26.3681 12.4595 25.2692 12.6328 23.082C12.7134 22.065 11.3985 21.6397 8.9502 21.6397ZM19.0498 21.6397C16.6015 21.6397 15.2866 22.065 15.3672 23.082C15.5405 25.2692 16.6364 26.3681 19.0488 26.4111C22.5928 26.4742 22.7724 24.7279 22.8613 23.082C22.9253 21.8986 21.4979 21.6397 19.0498 21.6397Z" fill="#8E1EBD"/>
  <defs>
    <linearGradient id="paint0_linear_4628_184" x1="26" y1="2" x2="5.31015" y2="29.4806" gradientUnits="userSpaceOnUse">
      <stop stop-color="#BEBEBE"/>
      <stop offset="1" stop-color="#9E9E9E"/>
    </linearGradient>
  </defs>
</svg>
