<svg width="128" height="128" viewBox="0 0 128 128" fill="none" xmlns="http://www.w3.org/2000/svg">
  <path d="M80 4V24C80 28.4183 83.5817 32 88 32H108V116C108 120.418 104.418 124 100 124H28C23.5817 124 20 120.418 20 116V12C20 7.58172 23.5817 4 28 4H80Z" fill="url(#paint0_linear_4618_179)"/>
  <path d="M80 4L108 32V36H88C83.5817 36 80 32.4183 80 28V4Z" fill="#9E9E9E"/>
  <path d="M80 4L108 32H88C83.5817 32 80 28.4183 80 24V4Z" fill="#EEEEEE"/>
  <path d="M83.9497 80L93.1421 89.1924L88.1924 94.1421L79 84.9497L83.9497 80Z" fill="#808080"/>
  <path d="M87 64C87 76.7026 76.7026 87 64 87C51.2974 87 41 76.7026 41 64C41 51.2974 51.2974 41 64 41C76.7026 41 87 51.2974 87 64Z" fill="url(#paint1_linear_4618_179)"/>
  <path d="M53.8762 84.4356C67.5967 84.4356 78.7193 73.4135 78.7193 59.817C78.7193 52.8082 75.7637 46.4835 71.0203 42C80.302 45.0382 87 53.704 87 63.92C87 76.6668 76.5726 87 63.7096 87C59.8482 87 56.2062 86.0688 53 84.4206C53.2908 84.4306 53.5829 84.4356 53.8762 84.4356Z" fill="#05919F"/>
  <path fill-rule="evenodd" clip-rule="evenodd" d="M64 92C79.464 92 92 79.464 92 64C92 48.536 79.464 36 64 36C48.536 36 36 48.536 36 64C36 79.464 48.536 92 64 92ZM64 87C76.7026 87 87 76.7026 87 64C87 51.2974 76.7026 41 64 41C51.2974 41 41 51.2974 41 64C41 76.7026 51.2974 87 64 87Z" fill="white"/>
  <path d="M53.5958 81.8928C55.8751 83.138 48 73.3013 48 64.4496C48 54.0356 53.8602 46.7468 52.2718 47.0067C50.7489 47.2559 43.2707 54.2962 43.0057 64.4496C42.7883 72.7823 48.8304 79.2894 53.5958 81.8928Z" fill="#88F1FF"/>
  <path d="M93.3297 87.331C93.7595 86.8887 94.455 86.8897 94.8834 87.334L112.238 105.345C114.594 107.789 114.586 111.745 112.222 114.179C109.857 116.614 106.031 116.606 103.676 114.162L86.3202 96.1509C85.8923 95.7065 85.8933 94.9876 86.3232 94.5447L93.3297 87.331Z" fill="#FFAD00"/>
  <defs>
    <linearGradient id="paint0_linear_4618_179" x1="108" y1="4" x2="20" y2="124" gradientUnits="userSpaceOnUse">
      <stop stop-color="#BEBEBE"/>
      <stop offset="1" stop-color="#9E9E9E"/>
    </linearGradient>
    <linearGradient id="paint1_linear_4618_179" x1="87" y1="41" x2="41" y2="87" gradientUnits="userSpaceOnUse">
      <stop stop-color="#48B9C7"/>
      <stop offset="1" stop-color="#05919F"/>
    </linearGradient>
  </defs>
</svg>
