<svg width="128" height="128" viewBox="0 0 128 128" fill="none" xmlns="http://www.w3.org/2000/svg">
  <path d="M80 4V24C80 28.4183 83.5817 32 88 32H108V116C108 120.418 104.418 124 100 124H28C23.5817 124 20 120.418 20 116V12C20 7.58172 23.5817 4 28 4H80Z" fill="url(#paint0_linear_4628_130)"/>
  <path d="M80 4L108 32V36H88C83.5817 36 80 32.4183 80 28V4Z" fill="#9E9E9E"/>
  <path d="M80 4L108 32H88C83.5817 32 80 28.4183 80 24V4Z" fill="#EEEEEE"/>
  <path d="M36 25C36 23.3431 37.3431 22 39 22H65C66.6569 22 68 23.3431 68 25C68 26.6569 66.6569 28 65 28H39C37.3431 28 36 26.6569 36 25Z" fill="#9E9E9E"/>
  <path d="M36 39C36 37.3431 37.3431 36 39 36H65C66.6569 36 68 37.3431 68 39C68 40.6569 66.6569 42 65 42H39C37.3431 42 36 40.6569 36 39Z" fill="#9E9E9E"/>
  <path d="M36 53C36 51.3431 37.3431 50 39 50H89C90.6569 50 92 51.3431 92 53C92 54.6569 90.6569 56 89 56H39C37.3431 56 36 54.6569 36 53Z" fill="#9E9E9E"/>
  <path d="M56.5 67C56.5 65.3431 57.8431 64 59.5 64H89C90.6569 64 92 65.3431 92 67C92 68.6569 90.6569 70 89 70H59.5C57.8431 70 56.5 68.6569 56.5 67Z" fill="#9E9E9E"/>
  <path d="M36 67C36 65.3431 37.3431 64 39 64H49C50.6569 64 52 65.3431 52 67C52 68.6569 50.6569 70 49 70H39C37.3431 70 36 68.6569 36 67Z" fill="#9E9E9E"/>
  <path d="M36 81C36 79.3431 37.3431 78 39 78H89C90.6569 78 92 79.3431 92 81C92 82.6569 90.6569 84 89 84H39C37.3431 84 36 82.6569 36 81Z" fill="#9E9E9E"/>
  <path d="M33.7825 90C44.5552 90 50.3391 91.8714 49.9846 96.3463C49.2222 105.971 44.3991 110.804 33.7837 110.993C18.1897 111.27 17.4003 103.588 17.0091 96.3458C16.7278 91.1385 23.0098 90 33.7825 90Z" fill="#99B4B8"/>
  <path d="M78.2175 90C67.4448 90 61.6609 91.8714 62.0154 96.3463C62.7778 105.971 67.6009 110.804 78.2163 110.993C93.8103 111.27 94.5997 103.588 94.9909 96.3458C95.2722 91.1385 88.9902 90 78.2175 90Z" fill="#99B4B8"/>
  <path d="M36 95C36 93.3431 37.3431 92 39 92H69C70.6569 92 72 93.3431 72 95C72 96.6569 70.6569 98 69 98H39C37.3431 98 36 96.6569 36 95Z" fill="#8FAAAE"/>
  <path d="M76 95.0002C76 93.3433 77.3431 92.0002 79 92.0002H89C90.6569 92.0002 92 93.3433 92 95.0002C92 96.657 90.6569 98.0002 89 98.0002H79C77.3431 98.0002 76 96.657 76 95.0002Z" fill="#8FAAAE"/>
  <path d="M54 96H58V97H54V96Z" fill="#9E9E9E"/>
  <path d="M49.797 98.0645C49.6123 99.3807 49.3386 100.595 48.9718 101.709C44.2955 102.308 39.7717 102.903 35.673 103.466C35.1129 103.543 33.593 104.346 32.3927 105C29.2514 106.712 27.4458 108.172 25.1564 110.008C23.4036 109.463 22.0407 108.714 20.9767 107.813C26.5812 104.617 34.4054 101.013 35.1925 100.8C36.0928 100.556 36.5954 100.4 37.5128 100.234C41.2758 99.5535 45.4528 98.8176 49.797 98.0645Z" fill="#997CBA"/>
  <path d="M57.5851 96.7266C58.4312 97.4475 58.9863 98.7787 59.6105 100.371C57.0788 100.685 54.5325 101.003 52.0128 101.322C52.6415 99.7316 53.1505 98.3163 53.8361 97.3682C55.0803 97.1544 56.3318 96.9404 57.5851 96.7266Z" fill="#997CBA"/>
  <path d="M90.6886 91.2021C93.5364 92.1117 95.054 93.6447 94.9972 96.1504C90.3621 96.684 76.9628 98.2375 62.5568 100.008C62.2984 98.8755 62.1195 97.6549 62.0157 96.3457C62.0059 96.221 62.0015 96.0982 62.0011 95.9775C73.2939 94.0646 84.2048 92.2641 90.6886 91.2021Z" fill="#997CBA"/>
  <path d="M62.2021 98.0645C66.5467 98.8177 70.724 99.5534 74.4873 100.234C75.4047 100.4 75.9073 100.556 76.8076 100.8C77.5939 101.012 85.4186 104.616 91.0234 107.812C89.9593 108.714 88.5969 109.464 86.8437 110.009C84.5541 108.173 82.7489 106.712 79.6074 105C78.4071 104.346 76.8872 103.543 76.3271 103.466C72.2279 102.903 67.7033 102.308 63.0263 101.709C62.6595 100.595 62.3867 99.3806 62.2021 98.0645Z" fill="#997CBA"/>
  <path d="M54.413 96.7266C55.6659 96.9403 56.9172 97.1534 58.1611 97.3672C58.8476 98.3149 59.3563 99.7306 59.9853 101.322C57.4656 101.003 54.9193 100.685 52.3876 100.371C53.0117 98.7791 53.5677 97.4483 54.413 96.7266Z" fill="#997CBA"/>
  <path d="M21.3125 91.2012C27.7963 92.2632 38.7066 94.0647 49.999 95.9775C49.9986 96.0982 49.9952 96.221 49.9853 96.3457C49.8816 97.655 49.7007 98.8755 49.4423 100.008C35.0356 98.2374 21.6358 96.6838 17.0019 96.1504C16.9451 93.6443 18.4637 92.1106 21.3125 91.2012Z" fill="#997CBA"/>
  <path d="M19.5434 108.651C20.7593 109.675 22.1957 110.489 23.7699 111.111C22.7216 111.937 21.5322 112.848 20.0727 113.886C18.6402 114.904 16.4615 115.664 15.5922 114.128C14.9005 112.905 15.4551 111.524 16.5521 110.655C17.3028 110.061 18.3398 109.376 19.5434 108.651Z" fill="#8E1EBD"/>
  <path d="M57.5853 96.7275C58.431 97.4487 58.9866 98.7792 59.6107 100.371C57.079 100.685 54.5328 101.003 52.0131 101.322C52.6418 99.7315 53.1507 98.3163 53.8363 97.3682C55.0805 97.1544 56.3321 96.9414 57.5853 96.7275Z" fill="#8E1EBD"/>
  <path d="M92.457 108.652C93.6601 109.377 94.6968 110.061 95.4473 110.655C96.5445 111.524 97.0991 112.905 96.4072 114.128C95.5379 115.664 93.3592 114.904 91.9268 113.886C90.4679 112.848 89.2784 111.939 88.2305 111.113C89.8049 110.49 91.241 109.676 92.457 108.652Z" fill="#8E1EBD"/>
  <path d="M54.4121 96.7275C55.6653 96.9414 56.917 97.1534 58.1611 97.3672C58.8476 98.3149 59.3562 99.7308 59.9854 101.322C57.4656 101.003 54.9194 100.685 52.3877 100.371C53.0115 98.7796 53.5673 97.4495 54.4121 96.7275Z" fill="#8E1EBD"/>
  <path fill-rule="evenodd" clip-rule="evenodd" d="M14.969 88.9306C24.8386 87.3039 33.6178 86.4546 45 87.9918C48.402 88.4512 51.6308 90.0524 56.0022 90.0527C60.375 90.0529 63.6051 88.451 67.0082 87.9918C78.3866 86.4563 87.1641 87.3062 97.0315 88.9326C98.5994 89.191 100 90.0549 100 92.5898C100 96.3563 97.9166 96.1462 96.7913 99.1113C95.6661 102.076 96.3712 104.576 93.5081 107.657C87.1767 114.469 72.246 113.721 66.0188 109.66C58.9698 105.063 60.1656 96.1454 55.9983 96.1454V96.1435C51.8353 96.1487 53.0286 105.062 45.9817 109.658C39.7545 113.719 24.8238 114.467 18.4924 107.655C15.6293 104.574 16.3344 102.074 15.2092 99.1093C14.0839 96.1443 12.0002 96.3544 12.0002 92.5878C12.0004 90.053 13.401 89.189 14.969 88.9306ZM33.7825 89.9999C23.0098 89.9999 16.7277 91.1384 17.009 96.3456C17.4002 103.588 18.1897 111.27 33.7834 110.992C44.3989 110.803 49.2222 105.97 49.9846 96.3456C50.3388 91.871 44.5548 89.9999 33.7825 89.9999ZM78.217 89.9999C67.4449 90 61.6617 91.8711 62.0159 96.3456C62.7783 105.97 67.6008 110.803 78.2161 110.992C93.81 111.27 94.5993 103.588 94.9905 96.3456C95.2718 91.1384 88.9897 89.9999 78.217 89.9999Z" fill="#8E1EBD"/>
  <defs>
    <linearGradient id="paint0_linear_4628_130" x1="108" y1="4" x2="20" y2="124" gradientUnits="userSpaceOnUse">
      <stop stop-color="#BEBEBE"/>
      <stop offset="1" stop-color="#9E9E9E"/>
    </linearGradient>
  </defs>
</svg>
