<svg width="48" height="48" viewBox="0 0 48 48" fill="none" xmlns="http://www.w3.org/2000/svg">
  <path d="M30 2V8.48633C30.0002 10.4245 31.5755 11.9939 33.5137 11.9863L40 11.96V42.5C39.9998 44.4328 38.4329 46 36.5 46H11.5C9.5671 46 8.00015 44.4329 8 42.5V5.5C8 3.567 9.567 2 11.5 2H30Z" fill="url(#paint0_linear_4618_199)"/>
  <path d="M30 2L40 12V14H33.5C31.567 14 30 12.433 30 10.5V2Z" fill="#9E9E9E"/>
  <path d="M30 2L40 12H33.5C31.567 12 30 10.433 30 8.5V2Z" fill="#EEEEEE"/>
  <path d="M31.9809 31.5L35.4281 34.9471L33.5719 36.8033L30.1248 33.3562L31.9809 31.5Z" fill="#808080"/>
  <path d="M33.125 25.5C33.125 30.2635 29.2635 34.125 24.5 34.125C19.7365 34.125 15.875 30.2635 15.875 25.5C15.875 20.7365 19.7365 16.875 24.5 16.875C29.2635 16.875 33.125 20.7365 33.125 25.5Z" fill="url(#paint1_linear_4618_199)"/>
  <path d="M20.7036 33.1634C25.8487 33.1634 30.0197 29.0301 30.0197 23.9314C30.0197 21.3031 28.9114 18.9313 27.1326 17.25C30.6132 18.3893 33.125 21.639 33.125 25.47C33.125 30.25 29.2147 34.125 24.3911 34.125C22.9431 34.125 21.5773 33.7758 20.375 33.1577C20.4841 33.1615 20.5936 33.1634 20.7036 33.1634Z" fill="#05919F"/>
  <path d="M20.853 31.9602C21.6819 32.4227 19 28.7878 19 25.5C19 21.632 20.9492 18.906 20.3716 19.0025C19.8178 19.095 17.0984 21.71 17.0021 25.4813C16.923 28.5763 19.1201 30.9932 20.853 31.9602Z" fill="#88F1FF"/>
  <path d="M35.4986 34.2491C35.6598 34.0832 35.9206 34.0836 36.0813 34.2503L42.5894 41.0043C43.4726 41.9209 43.4699 43.4042 42.5831 44.3173C41.6964 45.2301 40.2616 45.2273 39.3783 44.3106L32.8701 37.5566C32.7096 37.3899 32.71 37.1203 32.8712 36.9543L35.4986 34.2491Z" fill="#FFAD00"/>
  <path fill-rule="evenodd" clip-rule="evenodd" d="M24.5 36C30.299 36 35 31.299 35 25.5C35 19.701 30.299 15 24.5 15C18.701 15 14 19.701 14 25.5C14 31.299 18.701 36 24.5 36ZM24.5 34C29.1944 34 33 30.1944 33 25.5C33 20.8056 29.1944 17 24.5 17C19.8056 17 16 20.8056 16 25.5C16 30.1944 19.8056 34 24.5 34Z" fill="white"/>
  <defs>
    <linearGradient id="paint0_linear_4618_199" x1="40" y1="2" x2="7.65376" y2="45.744" gradientUnits="userSpaceOnUse">
      <stop stop-color="#BEBEBE"/>
      <stop offset="1" stop-color="#9E9E9E"/>
    </linearGradient>
    <linearGradient id="paint1_linear_4618_199" x1="33.125" y1="16.875" x2="15.875" y2="34.125" gradientUnits="userSpaceOnUse">
      <stop stop-color="#48B9C7"/>
      <stop offset="1" stop-color="#05919F"/>
    </linearGradient>
  </defs>
</svg>
