<svg width="48" height="48" viewBox="0 0 48 48" fill="none" xmlns="http://www.w3.org/2000/svg">
  <path d="M30 2V8.48633C30.0002 10.4245 31.5755 11.9939 33.5137 11.9863L40 11.96V42.5C39.9998 44.4328 38.4329 46 36.5 46H11.5C9.5671 46 8.00015 44.4329 8 42.5V5.5C8 3.567 9.567 2 11.5 2H30Z" fill="url(#paint0_linear_4628_166)"/>
  <path d="M30 2L40 12V14H33.5C31.567 14 30 12.433 30 10.5V2Z" fill="#9E9E9E"/>
  <path d="M30 2L40 12H33.5C31.567 12 30 10.433 30 8.5V2Z" fill="#EEEEEE"/>
  <path d="M13 10C13 9.44772 13.4477 9 14 9H24C24.5523 9 25 9.44772 25 10C25 10.5523 24.5523 11 24 11H14C13.4477 11 13 10.5523 13 10Z" fill="#9E9E9E"/>
  <path d="M13 15C13 14.4477 13.4477 14 14 14H24C24.5523 14 25 14.4477 25 15C25 15.5523 24.5523 16 24 16H14C13.4477 16 13 15.5523 13 15Z" fill="#9E9E9E"/>
  <path d="M13 20C13 19.4477 13.4477 19 14 19H33C33.5523 19 34 19.4477 34 20C34 20.5523 33.5523 21 33 21H14C13.4477 21 13 20.5523 13 20Z" fill="#9E9E9E"/>
  <path d="M20.35 25C20.35 24.4477 20.7977 24 21.35 24H33C33.5523 24 34 24.4477 34 25C34 25.5523 33.5523 26 33 26H21.35C20.7977 26 20.35 25.5523 20.35 25Z" fill="#9E9E9E"/>
  <path d="M13 25C13 24.4477 13.4477 24 14 24H17.25C17.8023 24 18.25 24.4477 18.25 25C18.25 25.5523 17.8023 26 17.25 26H14C13.4477 26 13 25.5523 13 25Z" fill="#9E9E9E"/>
  <path d="M13 30C13 29.4477 13.4477 29 14 29H33C33.5523 29 34 29.4477 34 30C34 30.5523 33.5523 31 33 31H14C13.4477 31 13 30.5523 13 30Z" fill="#9E9E9E"/>
  <path d="M13.1027 33C17.0201 33 19.1233 33.6238 18.9944 35.1154C18.7172 38.3235 16.9633 39.9346 13.1032 39.9976C7.43261 40.0901 7.14555 37.5293 7.0033 35.1153C6.90101 33.3795 9.18539 33 13.1027 33Z" fill="#99B4B8"/>
  <path d="M28.8973 33C24.9799 33 22.8767 33.6238 23.0056 35.1154C23.2828 38.3235 25.0367 39.9346 28.8968 39.9976C34.5674 40.0901 34.8544 37.5293 34.9967 35.1153C35.099 33.3795 32.8146 33 28.8973 33Z" fill="#99B4B8"/>
  <path d="M13 35C13 34.4477 13.4477 34 14 34H25.65C26.2023 34 26.65 34.4477 26.65 35C26.65 35.5523 26.2023 36 25.65 36H14C13.4477 36 13 35.5523 13 35Z" fill="#8FAAAE"/>
  <path d="M27.7 35C27.7 34.4477 28.1477 34 28.7 34H33C33.5523 34 34 34.4477 34 35C34 35.5523 33.5523 36 33 36H28.7C28.1477 36 27.7 35.5523 27.7 35Z" fill="#8FAAAE"/>
  <path d="M20 34H22V36H20V34Z" fill="#9E9E9E"/>
  <path d="M18.9346 35.624C18.864 36.1111 18.7545 36.5568 18.6035 36.9619C16.8466 37.1864 15.1453 37.409 13.6084 37.6201C13.4047 37.6481 12.8515 37.9409 12.415 38.1787C11.4393 38.7104 10.818 39.1754 10.1387 39.7158C9.48612 39.5489 8.97491 39.3136 8.57129 39.0283C10.5763 37.9128 13.1607 36.7254 13.4336 36.6514C13.761 36.5628 13.9437 36.5057 14.2773 36.4453C15.7005 36.1878 17.2866 35.9094 18.9346 35.624Z" fill="#997CBA"/>
  <path d="M21.5752 35.1699C21.8832 35.4322 22.0843 35.9165 22.3115 36.4961C21.3913 36.61 20.4657 36.7258 19.5498 36.8418C19.7782 36.264 19.9622 35.7493 20.2109 35.4043C20.6638 35.3265 21.1191 35.2477 21.5752 35.1699Z" fill="#997CBA"/>
  <path d="M32.9199 33.2773C34.2515 33.5497 34.9866 34.061 34.999 34.9814C33.1451 35.1952 28.3407 35.7533 23.2158 36.3838C23.1153 35.9929 23.0452 35.5702 23.0059 35.1152C23.0003 35.0511 23.0002 34.9887 23.0029 34.9277C26.7927 34.2853 30.483 33.6773 32.9199 33.2773Z" fill="#997CBA"/>
  <path d="M23.0638 35.624C24.7123 35.9095 26.2994 36.1877 27.723 36.4453C28.0563 36.5056 28.2387 36.5629 28.5658 36.6514C28.8375 36.7249 31.4217 37.9127 33.4271 39.0283C33.0236 39.3133 32.513 39.549 31.8607 39.7158C31.1814 39.1754 30.5602 38.7105 29.5844 38.1787C29.148 37.941 28.5959 37.6483 28.392 37.6201C26.8546 37.4089 25.1524 37.1865 23.3949 36.9619C23.2439 36.5568 23.1344 36.111 23.0638 35.624Z" fill="#997CBA"/>
  <path d="M20.4222 35.1689C20.878 35.2467 21.333 35.3256 21.7855 35.4033C22.0351 35.7481 22.2198 36.263 22.4486 36.8418C21.533 36.7259 20.6078 36.61 19.6879 36.4961C19.9149 35.9169 20.1149 35.4316 20.4222 35.1689Z" fill="#997CBA"/>
  <path d="M9.07947 33.2773C11.5163 33.6773 15.2066 34.2853 18.9965 34.9277C18.9991 34.9887 19 35.0511 18.9945 35.1152C18.9552 35.5704 18.8832 35.9928 18.7826 36.3838C13.6578 35.7533 8.85373 35.1951 7.00037 34.9814C7.01281 34.0611 7.7483 33.5497 9.07947 33.2773Z" fill="#997CBA"/>
  <path d="M7.74503 39.5049C8.18694 39.8768 8.70722 40.1741 9.27921 40.4004C8.89811 40.7005 8.46599 41.0319 7.93546 41.4092C7.41456 41.7796 6.62267 42.0556 6.30655 41.4971C6.0551 41.0526 6.25627 40.5504 6.65518 40.2344C6.92856 40.0179 7.30657 39.7689 7.74503 39.5049Z" fill="#8E1EBD"/>
  <path d="M21.5751 35.1699C21.8832 35.4321 22.0842 35.9166 22.3114 36.4961C21.3912 36.61 20.4656 36.7258 19.5497 36.8418C19.7784 36.2634 19.9627 35.7483 20.2118 35.4033C20.6643 35.3256 21.1194 35.2477 21.5751 35.1699Z" fill="#8E1EBD"/>
  <path d="M34.2539 39.5049C34.6926 39.769 35.0712 40.0178 35.3447 40.2344C35.7436 40.5504 35.9447 41.0526 35.6934 41.4971C35.3772 42.0556 34.5854 41.7796 34.0645 41.4092C33.5336 41.0317 33.101 40.7007 32.7197 40.4004C33.2918 40.1741 33.8119 39.8767 34.2539 39.5049Z" fill="#8E1EBD"/>
  <path d="M20.4229 35.1699C20.8789 35.2477 21.3343 35.3255 21.7871 35.4033C22.0363 35.7483 22.2205 36.2634 22.4492 36.8418C21.5336 36.7259 20.6085 36.609 19.6885 36.4951C19.9153 35.9165 20.1156 35.4323 20.4229 35.1699Z" fill="#8E1EBD"/>
  <path fill-rule="evenodd" clip-rule="evenodd" d="M21.001 32.7429C22.5724 32.7408 23.7318 32.1668 24.9557 32C29.1164 31.4329 32.3191 31.742 35.9209 32.3357C36.4909 32.4298 37 32.7442 37 33.6658C36.9999 35.0351 36.2422 34.9589 35.833 36.0369C35.424 37.1149 35.6803 38.0243 34.6396 39.1443C32.3375 41.6211 26.9083 41.3502 24.6436 39.8738C22.08 38.202 22.5144 34.9588 20.999 34.9588C19.4855 34.961 19.9191 38.2016 17.3564 39.8728C15.0918 41.3493 9.6626 41.6212 7.36035 39.1443C6.31943 38.0242 6.57589 37.1149 6.16699 36.0369C5.75785 34.9588 5.00027 35.0347 5 33.6658C5 32.7441 5.50909 32.4298 6.0791 32.3357C9.66812 31.7441 12.8609 31.4348 17 31.9936C17.9011 32.1153 19.4113 32.7451 21.001 32.7429ZM13.1025 32.9998C9.18536 32.9998 6.9007 33.3793 7.00293 35.115C7.14519 37.5291 7.43296 40.0904 13.1035 39.9978C16.9634 39.9347 18.7169 38.323 18.9941 35.115C19.1229 33.6235 17.0197 32.9998 13.1025 32.9998ZM28.8975 32.9998C24.9803 32.9998 22.8771 33.6235 23.0059 35.115C23.2831 38.323 25.0366 39.9347 28.8965 39.9978C34.567 40.0904 34.8548 37.5291 34.9971 35.115C35.0993 33.3793 32.8146 32.9998 28.8975 32.9998Z" fill="#8E1EBD"/>
  <defs>
    <linearGradient id="paint0_linear_4628_166" x1="40" y1="2" x2="7.65376" y2="45.744" gradientUnits="userSpaceOnUse">
      <stop stop-color="#BEBEBE"/>
      <stop offset="1" stop-color="#9E9E9E"/>
    </linearGradient>
  </defs>
</svg>
