<svg width="24" height="24" viewBox="0 0 24 24" fill="none" xmlns="http://www.w3.org/2000/svg">
  <path d="M15 2V4.75C15 5.99264 16.0074 7 17.25 7H20V19.75C19.9999 20.9926 18.9926 22 17.75 22H6.25C5.0074 22 4.00007 20.9926 4 19.75V4.25C4 3.00736 5.00736 2 6.25 2H15Z" fill="url(#paint0_linear_4628_201)"/>
  <path d="M15 2L20 7V8H17.25C16.0074 8 15 6.99264 15 5.75V2Z" fill="#9E9E9E"/>
  <path d="M15 2L20 7H17.25C16.0074 7 15 5.99264 15 4.75V2Z" fill="#EEEEEE"/>
  <path d="M7 5.5C7 5.22386 7.22386 5 7.5 5H11.5C11.7761 5 12 5.22386 12 5.5C12 5.77614 11.7761 6 11.5 6H7.5C7.22386 6 7 5.77614 7 5.5Z" fill="#9E9E9E"/>
  <path d="M7 8.5C7 8.22386 7.22386 8 7.5 8H11.5C11.7761 8 12 8.22386 12 8.5C12 8.77614 11.7761 9 11.5 9H7.5C7.22386 9 7 8.77614 7 8.5Z" fill="#9E9E9E"/>
  <path d="M11 11.5C11 11.2239 11.2239 11 11.5 11H16.5C16.7761 11 17 11.2239 17 11.5C17 11.7761 16.7761 12 16.5 12H11.5C11.2239 12 11 11.7761 11 11.5Z" fill="#9E9E9E"/>
  <path d="M7 11.5C7 11.2239 7.22386 11 7.5 11H9.5C9.77614 11 10 11.2239 10 11.5C10 11.7761 9.77614 12 9.5 12H7.5C7.22386 12 7 11.7761 7 11.5Z" fill="#9E9E9E"/>
  <path d="M7 14.5C7 14.2239 7.22386 14 7.5 14H16.5C16.7761 14 17 14.2239 17 14.5C17 14.7761 16.7761 15 16.5 15H7.5C7.22386 15 7 14.7761 7 14.5Z" fill="#9E9E9E"/>
  <path d="M7.05136 15.3682C9.01003 15.3682 10.0617 15.7246 9.9972 16.577C9.85858 18.4102 8.98166 19.3308 7.05158 19.3668C4.2163 19.4197 4.07278 17.9564 4.00165 16.5769C3.9505 15.585 5.0927 15.3682 7.05136 15.3682Z" fill="#99B4B8"/>
  <path d="M14.9486 15.3682C12.99 15.3682 11.9383 15.7246 12.0028 16.577C12.1414 18.4102 13.0183 19.3308 14.9484 19.3668C17.7837 19.4197 17.9272 17.9564 17.9984 16.5769C18.0495 15.585 16.9073 15.3682 14.9486 15.3682Z" fill="#99B4B8"/>
  <path d="M7 17.5C7 17.2239 7.22386 17 7.5 17H12.5C12.7761 17 13 17.2239 13 17.5C13 17.7761 12.7761 18 12.5 18H7.5C7.22386 18 7 17.7761 7 17.5Z" fill="#8FAAAE"/>
  <path d="M14 17.5C14 17.2239 14.2239 17 14.5 17H16.5C16.7761 17 17 17.2239 17 17.5C17 17.7761 16.7761 18 16.5 18H14.5C14.2239 18 14 17.7761 14 17.5Z" fill="#8FAAAE"/>
  <path d="M11.4935 17C11.6298 17.2595 11.74 17.6249 11.9213 18H10.1C10.2814 17.6248 10.3923 17.2595 10.5287 17H11.4935Z" fill="#9E9E9E"/>
  <path d="M9.95312 16.9648C9.91799 17.2053 9.8663 17.4268 9.7998 17.6309C8.92221 17.743 8.07242 17.8545 7.30469 17.96C7.20286 17.974 6.92624 18.1203 6.70801 18.2393C6.13722 18.5503 5.80846 18.815 5.39258 19.1484C5.09443 19.0397 4.86294 18.8945 4.68164 18.7227C5.6962 18.1489 7.07506 17.5142 7.2168 17.4756C7.38043 17.4313 7.47198 17.4032 7.63867 17.373C8.34614 17.245 9.1343 17.1067 9.95312 16.9648Z" fill="#997CBA"/>
  <path d="M11.2861 16.7354C11.4409 16.8662 11.5413 17.1088 11.6553 17.3994C11.1952 17.4564 10.7323 17.5133 10.2744 17.5713C10.3893 17.2806 10.4838 17.0231 10.6094 16.8506C10.834 16.812 11.0599 16.7739 11.2861 16.7354Z" fill="#997CBA"/>
  <path d="M17.4707 15.7051C17.8338 15.8897 18.0192 16.1655 17.998 16.5771C17.9969 16.5989 17.9943 16.6208 17.9932 16.6426C17.0629 16.7498 14.6715 17.0278 12.1191 17.3418C12.0663 17.1176 12.0272 16.8751 12.0059 16.6133C14.1875 16.2435 16.3027 15.8962 17.4707 15.7051Z" fill="#997CBA"/>
  <path d="M12.0468 16.9648C12.866 17.1067 13.6545 17.245 14.3622 17.373C14.529 17.4032 14.6204 17.4313 14.7841 17.4756C14.9252 17.5139 16.3027 18.149 17.3173 18.7227C17.1361 18.8943 16.9052 19.0398 16.6073 19.1484C16.1918 18.8152 15.8634 18.5501 15.2929 18.2393C15.0749 18.1205 14.7993 17.9743 14.6972 17.96C13.929 17.8544 13.0783 17.7431 12.2001 17.6309C12.1336 17.4268 12.0819 17.2053 12.0468 16.9648Z" fill="#997CBA"/>
  <path d="M10.7118 16.7344C10.9384 16.773 11.1646 16.8119 11.3896 16.8506C11.5154 17.0227 11.6105 17.2797 11.7255 17.5703C11.2673 17.5123 10.8041 17.4554 10.3437 17.3984C10.4573 17.1086 10.5579 16.8656 10.7118 16.7344Z" fill="#997CBA"/>
  <path d="M4.52921 15.7041C5.69664 15.8951 7.81135 16.2435 9.99308 16.6133C9.97174 16.8752 9.93269 17.1175 9.8798 17.3418C7.32624 17.0277 4.93426 16.7486 4.00577 16.6416C4.00463 16.6202 4.00297 16.5985 4.00187 16.5771C3.98076 16.1655 4.16603 15.8887 4.52921 15.7041Z" fill="#997CBA"/>
  <path d="M4.37523 18.9043C4.59541 19.0891 4.85433 19.2369 5.1389 19.3496C4.94844 19.4996 4.7331 19.666 4.468 19.8545C4.20756 20.0397 3.81161 20.1777 3.65355 19.8984C3.52791 19.6763 3.62812 19.4256 3.82738 19.2676C3.96432 19.1591 4.15549 19.0366 4.37523 18.9043Z" fill="#8E1EBD"/>
  <path d="M11.2864 16.7354C11.441 16.8662 11.5416 17.1089 11.6555 17.3994C11.1951 17.4564 10.7319 17.5133 10.2737 17.5713C10.3884 17.281 10.4833 17.0241 10.6086 16.8516C10.8336 16.8129 11.0598 16.774 11.2864 16.7354Z" fill="#8E1EBD"/>
  <path d="M17.625 18.9043C17.8446 19.0365 18.035 19.1592 18.1719 19.2676C18.3713 19.4255 18.4723 19.6762 18.3467 19.8984C18.1886 20.1777 17.7927 20.0397 17.5322 19.8545C17.2671 19.666 17.0508 19.5006 16.8604 19.3506C17.1454 19.2378 17.4045 19.0894 17.625 18.9043Z" fill="#8E1EBD"/>
  <path d="M10.7119 16.7344C10.9392 16.7732 11.166 16.8128 11.3916 16.8516C11.5166 17.0238 11.6102 17.2807 11.7246 17.5703C11.2667 17.5123 10.8038 17.4564 10.3438 17.3994C10.4575 17.109 10.5577 16.8657 10.7119 16.7344Z" fill="#8E1EBD"/>
  <path fill-rule="evenodd" clip-rule="evenodd" d="M3.54004 15.3174C4.71544 15.1237 5.80588 14.9902 7 15C8.17352 15.0097 10.75 15.5215 11 15.5215C11.25 15.5215 13.8265 15.0099 15 15.0005C16.1941 14.9909 17.2846 15.1247 18.46 15.3184C18.7449 15.3654 18.9997 15.523 19 15.9835C19 16.6681 18.6207 16.6304 18.416 17.169C18.2115 17.708 18.3396 18.1627 17.8193 18.7227C16.6682 19.9613 13.9535 19.8253 12.8213 19.087C11.5406 18.2511 11.757 16.6306 11 16.6299C10.2429 16.6305 10.4597 18.2502 9.17871 19.086C8.0465 19.8244 5.33179 19.9603 4.18066 18.7217C3.66042 18.1617 3.78757 17.7071 3.58301 17.168C3.37834 16.6297 3 16.667 3 15.9825C3.00022 15.5221 3.25512 15.3644 3.54004 15.3174ZM7.05176 15.3682C5.09309 15.3682 3.95081 15.5853 4.00195 16.5772C4.07309 17.9566 4.21667 19.4201 7.05176 19.3672C8.98166 19.3312 9.85841 18.4102 9.99707 16.5772C10.0615 15.7249 9.01017 15.3683 7.05176 15.3682ZM14.9482 15.3682C12.9898 15.3683 11.9385 15.7249 12.0029 16.5772C12.1416 18.4102 13.0183 19.3312 14.9482 19.3672C17.7833 19.4201 17.9269 17.9566 17.998 16.5772C18.0492 15.5853 16.9069 15.3682 14.9482 15.3682Z" fill="#8E1EBD"/>
  <defs>
    <linearGradient id="paint0_linear_4628_201" x1="20" y1="2" x2="5.76017" y2="23.1832" gradientUnits="userSpaceOnUse">
      <stop stop-color="#BEBEBE"/>
      <stop offset="1" stop-color="#9E9E9E"/>
    </linearGradient>
  </defs>
</svg>
