<svg width="24" height="24" viewBox="0 0 24 24" fill="none" xmlns="http://www.w3.org/2000/svg">
  <path d="M15 2V4.75C15 5.99264 16.0074 7 17.25 7H20V19.75C19.9999 20.9926 18.9926 22 17.75 22H6.25C5.0074 22 4.00007 20.9926 4 19.75V4.25C4 3.00736 5.00736 2 6.25 2H15Z" fill="url(#paint0_linear_4618_219)"/>
  <path d="M15 2L20 7V8H17.25C16.0074 8 15 6.99264 15 5.75V2Z" fill="#9E9E9E"/>
  <path d="M15 2L20 7H17.25C16.0074 7 15 5.99264 15 4.75V2Z" fill="#EEEEEE"/>
  <path d="M13.9283 15L15.6519 16.7236L14.7238 17.6517L13.0002 15.9281L13.9283 15Z" fill="#808080"/>
  <path d="M16 12C16 14.7614 13.7614 17 11 17C8.23857 17 6 14.7614 6 12C6 9.23857 8.23857 7 11 7C13.7614 7 16 9.23857 16 12Z" fill="url(#paint1_linear_4618_219)"/>
  <path d="M8.49997 16C11.3248 16 13.2953 14.2827 13.2953 11.5634C13.2953 10.1616 12.6868 8.8967 11.7102 8C13.6212 8.60764 14.9998 9.5 15.0002 12.384C15.0002 14.9334 13.148 16.5 10.4998 16.5C9.70476 16.5 8.97969 16.3266 8.31958 15.997C8.37945 15.999 8.43959 16 8.49997 16Z" fill="#05919F"/>
  <path fill-rule="evenodd" clip-rule="evenodd" d="M11 17C13.7614 17 16 14.7614 16 12C16 9.23857 13.7614 7 11 7C8.23857 7 6 9.23857 6 12C6 14.7614 8.23857 17 11 17ZM11 16C13.2091 16 15 14.2091 15 12C15 9.79086 13.2091 8 11 8C8.79086 8 7 9.79086 7 12C7 14.2091 8.79086 16 11 16Z" fill="white"/>
  <path fill-rule="evenodd" clip-rule="evenodd" d="M11 17C13.7614 17 16 14.7614 16 12C16 9.23857 13.7614 7 11 7C8.23857 7 6 9.23857 6 12C6 14.7614 8.23857 17 11 17ZM11 16.1071C13.2683 16.1071 15.1071 14.2683 15.1071 12C15.1071 9.73168 13.2683 7.89286 11 7.89286C8.73168 7.89286 6.89286 9.73168 6.89286 12C6.89286 14.2683 8.73168 16.1071 11 16.1071Z" fill="white"/>
  <path d="M9.5 15.0001C9.92737 15.2336 9 13.932 9 12.2723C9 11.1465 9.5 9.00098 9 9.50007C8.72468 9.7749 8.00186 11.1579 8.00098 12.2723C8 13.5005 8.60648 14.5119 9.5 15.0001Z" fill="#88F1FF"/>
  <path d="M15.6873 16.3746C15.7679 16.2916 15.8983 16.2918 15.9786 16.3751L19.2327 19.7522C19.6743 20.2105 19.6729 20.9521 19.2295 21.4086C18.7862 21.8651 18.0688 21.8636 17.6272 21.4053L14.373 18.0283C14.2928 17.945 14.293 17.8102 14.3736 17.7271L15.6873 16.3746Z" fill="#FFAD00"/>
  <defs>
    <linearGradient id="paint0_linear_4618_219" x1="20" y1="2" x2="5.76017" y2="23.1832" gradientUnits="userSpaceOnUse">
      <stop stop-color="#BEBEBE"/>
      <stop offset="1" stop-color="#9E9E9E"/>
    </linearGradient>
    <linearGradient id="paint1_linear_4618_219" x1="16" y1="7" x2="6" y2="17" gradientUnits="userSpaceOnUse">
      <stop stop-color="#48B9C7"/>
      <stop offset="1" stop-color="#05919F"/>
    </linearGradient>
  </defs>
</svg>
