<svg width="64" height="64" viewBox="0 0 64 64" fill="none" xmlns="http://www.w3.org/2000/svg">
  <path d="M40 2V12C40 14.209 41.791 15.9998 44 16H54V58C53.9998 60.209 52.209 62 50 62H14C11.791 62 10.0002 60.209 10 58V6C10 3.79086 11.7909 2 14 2H40Z" fill="url(#paint0_linear_4618_189)"/>
  <path d="M40 2L54 16V18H44C41.7909 18 40 16.2091 40 14V2Z" fill="#9E9E9E"/>
  <path d="M40 2L54 16H44C41.7909 16 40 14.2091 40 12V2Z" fill="#EEEEEE"/>
  <path d="M41.9749 40L46.5711 44.5962L44.0962 47.0711L39.5 42.4749L41.9749 40Z" fill="#808080"/>
  <path d="M44 32C44 38.6274 38.6274 44 32 44C25.3726 44 20 38.6274 20 32C20 25.3726 25.3726 20 32 20C38.6274 20 44 25.3726 44 32Z" fill="url(#paint1_linear_4618_189)"/>
  <path d="M27.4381 42.6323C34.2983 42.6323 39.8596 36.7539 39.8596 29.5024C39.8596 25.7644 38.3819 22.3912 36.0101 20C40.651 21.6204 44 26.2421 44 31.6907C44 38.4889 38.7863 44 32.3548 44C30.4241 44 28.6031 43.5034 27 42.6243C27.1454 42.6297 27.2915 42.6323 27.4381 42.6323Z" fill="#05919F"/>
  <path fill-rule="evenodd" clip-rule="evenodd" d="M32 46C39.732 46 46 39.732 46 32C46 24.268 39.732 18 32 18C24.268 18 18 24.268 18 32C18 39.732 24.268 46 32 46ZM32 44C38.3513 44 44 38.3513 44 32C44 25.6487 38.3513 20 32 20C25.6487 20 20 25.6487 20 32C20 38.3513 25.6487 44 32 44Z" fill="white"/>
  <path d="M27.0003 41C28.1399 41.6227 24.0002 37.1508 24.0002 32.725C24.0002 27.518 26.7636 23.7461 26.0001 24.0004C24.5001 24.5 22.1357 27.6483 22.0029 32.725C21.9253 35.6944 24.5003 39.6341 27.0003 41Z" fill="#88F1FF"/>
  <path d="M46.6648 43.6655C46.8798 43.4443 47.2275 43.4448 47.4417 43.667L56.1191 52.6724C57.2968 53.8946 57.2932 55.8723 56.1108 57.0897C54.9285 58.3068 53.0155 58.303 51.8378 57.0808L43.1601 48.0754C42.9461 47.8532 42.9466 47.4938 43.1616 47.2724L46.6648 43.6655Z" fill="#FFAD00"/>
  <defs>
    <linearGradient id="paint0_linear_4618_189" x1="54" y1="2" x2="10" y2="62" gradientUnits="userSpaceOnUse">
      <stop stop-color="#BEBEBE"/>
      <stop offset="1" stop-color="#9E9E9E"/>
    </linearGradient>
    <linearGradient id="paint1_linear_4618_189" x1="44" y1="20" x2="20" y2="44" gradientUnits="userSpaceOnUse">
      <stop stop-color="#48B9C7"/>
      <stop offset="1" stop-color="#05919F"/>
    </linearGradient>
  </defs>
</svg>
