<svg width="64" height="64" viewBox="0 0 64 64" fill="none" xmlns="http://www.w3.org/2000/svg">
  <path d="M40 2V12C40 14.209 41.791 15.9998 44 16H54V58C53.9998 60.209 52.209 62 50 62H14C11.791 62 10.0002 60.209 10 58V6C10 3.79086 11.7909 2 14 2H40Z" fill="url(#paint0_linear_4628_148)"/>
  <path d="M40 2L54 16V18H44C41.7909 18 40 16.2091 40 14V2Z" fill="#9E9E9E"/>
  <path d="M40 2L54 16H44C41.7909 16 40 14.2091 40 12V2Z" fill="#EEEEEE"/>
  <path d="M18 12.5C18 11.6716 18.6716 11 19.5 11H32.5C33.3284 11 34 11.6716 34 12.5C34 13.3284 33.3284 14 32.5 14H19.5C18.6716 14 18 13.3284 18 12.5Z" fill="#9E9E9E"/>
  <path d="M18 19.5C18 18.6716 18.6716 18 19.5 18H32.5C33.3284 18 34 18.6716 34 19.5C34 20.3284 33.3284 21 32.5 21H19.5C18.6716 21 18 20.3284 18 19.5Z" fill="#9E9E9E"/>
  <path d="M18 26.5C18 25.6716 18.6716 25 19.5 25H44.5C45.3284 25 46 25.6716 46 26.5C46 27.3284 45.3284 28 44.5 28H19.5C18.6716 28 18 27.3284 18 26.5Z" fill="#9E9E9E"/>
  <path d="M28 33.5C28 32.6716 28.6716 32 29.5 32H44.5C45.3284 32 46 32.6716 46 33.5C46 34.3284 45.3284 35 44.5 35H29.5C28.6716 35 28 34.3284 28 33.5Z" fill="#9E9E9E"/>
  <path d="M18 33.5C18 32.6716 18.6716 32 19.5 32H24.5C25.3284 32 26 32.6716 26 33.5C26 34.3284 25.3284 35 24.5 35H19.5C18.6716 35 18 34.3284 18 33.5Z" fill="#9E9E9E"/>
  <path d="M18 40.5C18 39.6716 18.6716 39 19.5 39H44.5C45.3284 39 46 39.6716 46 40.5C46 41.3284 45.3284 42 44.5 42H19.5C18.6716 42 18 41.3284 18 40.5Z" fill="#9E9E9E"/>
  <path d="M16.6455 44C22.1951 44 25.1747 44.9803 24.9921 47.3242C24.5993 52.3655 22.1147 54.8972 16.6462 54.9962C8.61286 55.1416 8.2062 51.1175 8.00467 47.324C7.85976 44.5964 11.096 44 16.6455 44Z" fill="#99B4B8"/>
  <path d="M39.3545 44C33.8049 44 30.8253 44.9803 31.0079 47.3242C31.4007 52.3655 33.8853 54.8972 39.3538 54.9962C47.3871 55.1416 47.7938 51.1175 47.9953 47.324C48.1402 44.5964 44.904 44 39.3545 44Z" fill="#99B4B8"/>
  <path d="M18 47.5C18 46.6716 18.6716 46 19.5 46H34.5C35.3284 46 36 46.6716 36 47.5C36 48.3284 35.3284 49 34.5 49H19.5C18.6716 49 18 48.3284 18 47.5Z" fill="#8FAAAE"/>
  <path d="M38 47.5C38 46.6716 38.6716 46 39.5 46H44.5C45.3284 46 46 46.6716 46 47.5C46 48.3284 45.3284 49 44.5 49H39.5C38.6716 49 38 48.3284 38 47.5Z" fill="#8FAAAE"/>
  <path d="M27 47H29V48H27V47Z" fill="#9E9E9E"/>
  <path d="M24.8975 48.3486C24.8049 49.0074 24.6663 49.6146 24.4824 50.1719C22.1455 50.471 19.8842 50.7665 17.8359 51.0479C17.5555 51.0867 16.7961 51.4876 16.1963 51.8145C14.6266 52.6698 13.7237 53.3995 12.5801 54.3164C11.7036 54.0441 11.0233 53.67 10.4912 53.2197C13.2934 51.6218 17.2037 49.8211 17.5967 49.7148C18.0465 49.5932 18.2975 49.5146 18.7559 49.4316C20.637 49.0912 22.7258 48.7252 24.8975 48.3486Z" fill="#997CBA"/>
  <path d="M28.792 47.6777C29.2153 48.0384 29.4904 48.7052 29.8027 49.502C28.5372 49.6586 27.2644 49.818 26.0049 49.9775C26.3194 49.1821 26.5743 48.4744 26.917 48C27.5393 47.8931 28.1651 47.7847 28.792 47.6777Z" fill="#997CBA"/>
  <path d="M45.3418 44.916C46.767 45.3707 47.5246 46.1361 47.4961 47.3896C45.1765 47.6567 38.4801 48.4346 31.2803 49.3193C31.1509 48.7528 31.0597 48.1424 31.0078 47.4873C31.0029 47.4251 31.0002 47.3639 31 47.3037C36.6452 46.3475 42.0995 45.4471 45.3418 44.916Z" fill="#997CBA"/>
  <path d="M31.1009 48.3486C33.273 48.7252 35.3619 49.0912 37.2435 49.4316C37.7021 49.5146 37.9535 49.5931 38.4036 49.7148C38.7984 49.822 42.7067 51.6222 45.5081 53.2197C44.976 53.67 44.2957 54.0441 43.4192 54.3164C42.2757 53.3995 41.3726 52.6697 39.803 51.8145C39.203 51.4875 38.4435 51.0864 38.1634 51.0479C36.1147 50.7664 33.8533 50.4711 31.5159 50.1719C31.3321 49.6146 31.1934 49.0073 31.1009 48.3486Z" fill="#997CBA"/>
  <path d="M27.2063 47.6777C27.8335 47.7847 28.4597 47.893 29.0823 48C29.425 48.4743 29.6791 49.1822 29.9935 49.9775C28.7339 49.818 27.4611 49.6586 26.1956 49.502C26.5078 48.7055 26.7834 48.0387 27.2063 47.6777Z" fill="#997CBA"/>
  <path d="M10.6565 44.915C13.8984 45.446 19.3528 46.3464 24.9983 47.3027C24.9982 47.3632 24.9974 47.4248 24.9925 47.4873C24.9406 48.1425 24.8484 48.7528 24.719 49.3193C17.518 48.4344 10.8206 47.6565 8.50224 47.3896C8.47376 46.1363 9.23147 45.3698 10.6565 44.915Z" fill="#997CBA"/>
  <path d="M9.7729 53.6406C10.3805 54.152 11.0977 54.5589 11.8842 54.8701C11.3602 55.2829 10.7662 55.739 10.0366 56.2578C9.32039 56.7671 8.23107 57.1466 7.79634 56.3789C7.45032 55.7676 7.72809 55.0762 8.27681 54.6416C8.65225 54.3443 9.17111 54.0031 9.7729 53.6406Z" fill="#8E1EBD"/>
  <path d="M28.7915 47.6787C29.2147 48.0394 29.4909 48.7052 29.8032 49.502C28.5376 49.6586 27.2648 49.818 26.0053 49.9775C26.3198 49.182 26.5747 48.4744 26.9174 48C27.5394 47.8931 28.165 47.7856 28.7915 47.6787Z" fill="#8E1EBD"/>
  <path d="M46.2275 53.6416C46.8292 54.004 47.3483 54.3444 47.7236 54.6416C48.2724 55.0762 48.5491 55.7676 48.2031 56.3789C47.7684 57.1462 46.68 56.7669 45.9639 56.2578C45.2342 55.7389 44.6394 55.2829 44.1152 54.8701C44.9018 54.5588 45.6198 54.1531 46.2275 53.6416Z" fill="#8E1EBD"/>
  <path d="M27.2061 47.6787C27.8329 47.7857 28.4588 47.8931 29.0811 48C29.424 48.4742 29.6786 49.1819 29.9932 49.9775C28.7336 49.818 27.4608 49.6586 26.1953 49.502C26.5074 48.7058 26.7835 48.0398 27.2061 47.6787Z" fill="#8E1EBD"/>
  <path fill-rule="evenodd" clip-rule="evenodd" d="M7.48438 43.7814C11.361 43.1425 14.9011 42.7434 19 42.9743C21.4667 43.1132 24.4455 44.3397 28.001 44.343C31.581 44.3462 34.3694 43.1194 37.0652 42.9719C41.1365 42.7492 44.6596 43.1478 48.5156 43.7834C49.2996 43.9126 49.9999 44.3441 50 45.6115C49.9999 47.4945 48.9581 47.3897 48.3955 48.8723C47.8331 50.3547 48.1853 51.6045 46.7539 53.1447C43.5882 56.5505 36.1235 56.177 33.0098 54.1467C29.4849 51.848 30.0827 47.3898 27.999 47.3898V47.3879C25.9175 47.3905 26.5141 51.8477 22.9902 54.1457C19.8765 56.176 12.4117 56.5495 9.24609 53.1438C7.81466 51.6035 8.16683 50.3536 7.60449 48.8713C7.04187 47.3887 6.00014 47.4935 6 45.6105C6 44.3429 6.70037 43.9107 7.48438 43.7814ZM16.8916 44.3156C11.5053 44.3156 8.36424 44.8848 8.50488 47.4885C8.70049 51.1095 9.09494 54.9505 16.8916 54.8117C22.1993 54.7172 24.611 52.3006 24.9922 47.4885C25.1694 45.2511 22.2776 44.3157 16.8916 44.3156ZM39.1084 44.3156C33.7222 44.3157 30.8306 45.2511 31.0078 47.4885C31.389 52.3005 33.8007 54.7172 39.1084 54.8117C46.9048 54.9504 47.2995 51.1094 47.4951 47.4885C47.6358 44.8848 44.4947 44.3156 39.1084 44.3156Z" fill="#8E1EBD"/>
  <defs>
    <linearGradient id="paint0_linear_4628_148" x1="54" y1="2" x2="10" y2="62" gradientUnits="userSpaceOnUse">
      <stop stop-color="#BEBEBE"/>
      <stop offset="1" stop-color="#9E9E9E"/>
    </linearGradient>
  </defs>
</svg>
